PathFileType	4	(X/Y/Z)	C:/Users/beibeiliu/ov580/test_trc/User1\sequence.29_training_dense_left.trc
DataRate	CameraRate	NumFrames	NumMarkers	Units	OrigDataRate	OrigDataStartFrame	OrigNumFrames
120	120	11	19	mm	120	115	228
Frame#	Time	ThumbCMC			ThumbMCP			ThumbIP			ThumbTip			IndexMCP			IndexPIP			IndexTip			MiddleMCP			MiddlePIP			MiddleTip			RingMCP			RingPIP			RingTip			PinkyMCP			PinkyPIP			PinkyTip			BackHand1			BackHand2			BackHand3	
		X0	Y0	Z0	X1	Y1	Z1	X2	Y2	Z2	X3	Y3	Z3	X4	Y4	Z4	X5	Y5	Z5	X6	Y6	Z6	X7	Y7	Z7	X8	Y8	Z8	X9	Y9	Z9	X10	Y10	Z10	X11	Y11	Z11	X12	Y12	Z12	X13	Y13	Z13	X14	Y14	Z14	X15	Y15	Z15	X16	Y16	Z16	X17	Y17	Z17	X18	Y18	Z18	
114	0.95	-102.864	12.0008	46.3145	-81.1257	-6.45208	15.0626	-72.8012	-15.5429	-10.2322	-66.6966	-27.8044	-27.6579	-117.112	37.6865	-34.5071	-112.466	35.3395	-62.3946	-113.552	29.43	-85.5466	-142.711	26.2466	-43.7756	-141.986	25.2168	-74.7127	-140.425	26.4297	-97.898	-153.338	-1.64742	-46.9484	-143.225	-8.04249	-68.4409	-129.968	-20.6327	-89.1971	-168.871	-22.4457	-23.6574	-169.019	-28.4276	-45.6041	-173.621	-34.4462	-69.197	-165.923	4.36136	19.254	-171.968	1.48811	47.4249	-144.598	26.4893	38.0634	
115	0.958333	-103.829	11.8917	42.866	-83.2966	-7.28424	18.7742	-72.8787	-16.9728	-11.0756	-68.7397	-28.19	-30.0345	-117.349	38.2155	-33.4074	-112.907	36.4674	-62.8837	-110.581	32.1968	-84.3033	-145.78	23.6185	-45.2695	-143.297	22.7944	-74.936	-140.012	24.272	-98.3482	-150.79	-0.00730334	-41.982	-138.252	-11.2333	-72.3745	-123.969	-24.3154	-87.8517	-170.32	-23.7507	-27.5355	-170.807	-31.1092	-45.0277	-171.779	-30.6721	-71.6697	-166.453	4.7833	16.3746	-170.349	3.64795	49.3249	-140.136	28.7508	36.8733	
116	0.966667	-103.432	11.6897	45.1646	-82.4636	-7.35925	12.6219	-74.4222	-17.4655	-9.60114	-73.8641	-29.4861	-33.2515	-118.693	35.9353	-33.7493	-116.082	34.2176	-59.7098	-111.594	30.9623	-86.741	-146.121	22.4963	-43.8836	-141.226	24.4729	-73.0395	-142.898	20.948	-100.916	-151.44	-3.51649	-42.9304	-135.98	-13.5015	-70.6581	-122.535	-29.6624	-86.094	-167.934	-23.2877	-28.1237	-171.009	-31.0831	-44.3723	-174.706	-32.2666	-69.1954	-165.573	8.17156	16.3251	-173.669	1.80704	48.8637	-142.719	28.6982	38.8008	
117	0.975	-102.13	11.2939	44.0547	-79.6672	-7.59226	11.9276	-76.3996	-17.2056	-10.8861	-74.8263	-29.7175	-33.1748	-120.181	35.4871	-37.5354	-113.909	35.4209	-62.9919	-112.097	30.137	-88.976	-146.5	21.5491	-44.5579	-143.99	19.7554	-72.1683	-143.676	17.8257	-99.9433	-147.259	-3.85081	-44.2762	-135.261	-14.1475	-67.2738	-117.105	-33.5991	-83.5895	-169.313	-26.2262	-25.0461	-169.914	-32.1338	-46.3649	-174.096	-30.7659	-71.2559	-165.951	5.57896	13.3723	-168.546	1.60934	51.8847	-145.241	25.4876	34.7038	
118	0.983333	-105.576	11.8489	41.0311	-82.9943	-6.52565	10.2113	-80.6838	-16.3556	-14.3616	-72.7015	-30.6828	-35.8813	-119.762	37.9404	-37.0391	-114.918	35.9062	-64.1575	-113.466	29.5314	-87.7805	-144.899	22.4132	-45.126	-141.351	22.0781	-71.8433	-142.284	18.4458	-102.476	-148.311	-8.82484	-47.7965	-135.078	-19.2089	-68.3329	-113.374	-36.8041	-83.2325	-168.505	-26.2756	-25.9924	-170.356	-31.4966	-44.7128	-172.715	-29.4273	-70.8637	-168.825	3.34992	15.7923	-171.648	-0.192398	50.5888	-143.049	26.8235	38.0578	
119	0.991667	-106.406	12.1152	40.359	-81.9748	-5.54457	10.4146	-78.7595	-16.4636	-16.3879	-77.0051	-30.9916	-36.934	-119.793	37.5441	-34.0487	-115.738	35.4601	-60.8978	-113.229	29.537	-88.73	-147.043	20.1138	-47.5707	-142.603	20.0287	-76.2776	-142.431	18.7421	-104.951	-147.839	-7.73279	-47.0249	-130.237	-18.176	-68.6552	-112.836	-36.6278	-79.5859	-167.675	-25.4936	-27.7131	-169.491	-31.6485	-47.1312	-170.319	-28.73	-73.0688	-169.28	3.70227	12.1316	-173.067	-1.636	47.4726	-147.785	25.2302	37.3715	
120	1	-104.222	13.5321	43.4282	-86.2599	-6.34785	14.5514	-82.3802	-17.4702	-14.0986	-78.6979	-29.7268	-32.6076	-121.971	36.4758	-37.9465	-117.556	33.2923	-60.4105	-113.57	30.7827	-86.182	-147	18.8192	-44.1274	-141.036	19.1773	-74.5179	-141.171	15.7734	-100.673	-147.732	-5.2144	-42.285	-131.194	-18.2562	-65.8242	-109.126	-39.1865	-78.5174	-166.016	-23.8007	-29.6514	-167.278	-28.1946	-50.3534	-172.098	-27.8318	-68.2056	-169.553	1.76379	16.8072	-172.642	-2.52952	49.0068	-144.389	28.3183	34.2047	
121	1.00833	-102.718	13.5331	42.6001	-84.8284	-7.31959	15.1364	-81.4474	-16.6513	-14.2022	-80.3685	-30.4124	-39.2148	-122.398	34.874	-37.2297	-117.945	33.1163	-60.8334	-115.313	27.6182	-90.2202	-145.015	19.3106	-48.8231	-138.933	20.5931	-71.0885	-141.556	15.0368	-99.8241	-148.756	-9.72541	-43.398	-131.497	-23.3852	-66.265	-109.844	-40.2469	-75.5317	-168.257	-24.9403	-25.7451	-169.473	-29.5669	-45.8786	-172.919	-29.325	-68.4122	-166.729	3.93061	13.8563	-172.374	-1.70121	50.9948	-145.931	28.0311	36.9104	
122	1.01667	-106.029	10.8093	44.0551	-86.0354	-6.50679	11.9637	-79.7543	-17.2052	-17.9267	-80.8924	-29.595	-39.3165	-120.494	36.3037	-38.9225	-116.112	33.9176	-59.9201	-111.97	30.8742	-85.0326	-144.602	20.431	-47.5334	-138.299	20.2034	-73.4696	-136.403	18.3615	-103.39	-146.683	-9.47968	-45.9673	-129.658	-23.1091	-67.601	-110.295	-39.8669	-74.5701	-168.611	-25.0353	-30.9027	-168.395	-27.5923	-46.1461	-169.976	-25.0747	-70.7104	-168.178	3.14053	12.0346	-172.951	1.13816	50.0665	-142.948	28.4514	36.8083	
123	1.025	-101.81	13.4029	41.2739	-84.2487	-6.02164	9.00422	-82.9183	-16.3547	-17.7502	-79.2251	-30.489	-37.4985	-118.048	38.3096	-35.6721	-116.233	34.6285	-64.1175	-110.873	30.9978	-90.4073	-142.689	22.0849	-47.3514	-139.921	18.2325	-74.5607	-135.107	18.2895	-102.471	-146.032	-4.8901	-42.4833	-128.994	-21.7188	-66.9971	-106.793	-38.9179	-75.6624	-167.047	-22.2402	-26.1288	-166.876	-25.681	-48.2992	-173.606	-26.1566	-68.5899	-167.935	3.02526	16.9856	-169.87	3.21678	47.9485	-145.983	26.341	38.0336	
124	1.03333	-103.675	12.6789	41.0051	-86.8813	-7.05042	11.3841	-80.0546	-16.6958	-17.9486	-80.1369	-30.2906	-36.5824	-120.695	35.6256	-35.8662	-117.591	32.7297	-61.1975	-113.393	29.6701	-88.2363	-142.111	23.2581	-45.9335	-139.716	18.81	-75.6712	-135.796	18.1147	-102.436	-148.133	-6.46256	-43.2764	-130.845	-17.8006	-66.2067	-105.866	-36.5092	-76.7653	-168.743	-24.6896	-25.868	-168.008	-26.9061	-49.1898	-173.565	-25.5233	-71.9981	-165.826	6.77034	14.2123	-172.293	1.70623	50.7828	-143.79	25.7742	38.1724	
